{
  "asset": {
    "generator": "Khronos glTF Blender I/O v0.9.36",
    "version": "2.0"
  },
  "scene": 0,
  "scenes": [
    {
      "extras": {
        "glTF2ExportSettings": {
          "export_apply": 1,
          "export_colors": 1,
          "export_extras": 1,
          "export_force_sampling": 1,
          "export_materials": 1,
          "export_morph": 1,
          "export_normals": 1,
          "export_selected": 1,
          "export_texcoords": 1,
          "export_yup": 1
        }
      },
      "name": "Scene",
      "nodes": [
        0
      ]
    }
  ],
  "nodes": [
    {
      "mesh": 0,
      "name": "Sphere"
    }
  ],
  "animations": [
    {
      "channels": [
        {
          "sampler": 0,
          "target": {
            "node": 0,
            "path": "weights"
          }
        }
      ],
      "name": "KeyAction",
      "samplers": [
        {
          "input": 6,
          "interpolation": "LINEAR",
          "output": 7
        }
      ]
    }
  ],
  "materials": [
    {
      "name": "Material.002",
      "pbrMetallicRoughness": {
        "baseColorTexture": {
          "index": 0,
          "texCoord": 0
        },
        "metallicFactor": 0,
        "roughnessFactor": 1
      }
    }
  ],
  "meshes": [
    {
      "extras": {
        "targetNames": [
          "Flat"
        ]
      },
      "name": "SphereMesh",
      "primitives": [
        {
          "attributes": {
            "POSITION": 0,
            "NORMAL": 1,
            "TEXCOORD_0": 2
          },
          "indices": 3,
          "material": 0,
          "targets": [
            {
              "POSITION": 4,
              "NORMAL": 5
            }
          ]
        }
      ],
      "weights": [
        0
      ]
    }
  ],
  "textures": [
    {
      "source": 0
    }
  ],
  "images": [
    {
      "name": "IMG-2237",
      "uri": "UnrollSphere3_img0.jpg"
    }
  ],
  "accessors": [
    {
      "bufferView": 0,
      "componentType": 5126,
      "count": 574,
      "max": [
        1.000000238418579,
        1,
        1.0000003576278687
      ],
      "min": [
        -0.9999998211860657,
        -1,
        -1
      ],
      "type": "VEC3"
    },
    {
      "bufferView": 1,
      "componentType": 5126,
      "count": 574,
      "type": "VEC3"
    },
    {
      "bufferView": 2,
      "componentType": 5126,
      "count": 574,
      "type": "VEC2"
    },
    {
      "bufferView": 3,
      "componentType": 5123,
      "count": 2880,
      "type": "SCALAR"
    },
    {
      "bufferView": 4,
      "componentType": 5126,
      "count": 574,
      "max": [
        2,
        2.9802322387695312e-8,
        1.0000001192092896
      ],
      "min": [
        -2.000763177871704,
        0,
        -1.000000238418579
      ],
      "type": "VEC3"
    },
    {
      "bufferView": 5,
      "componentType": 5126,
      "count": 574,
      "type": "VEC3"
    },
    {
      "bufferView": 6,
      "componentType": 5126,
      "count": 100,
      "max": [
        4.166666666666667
      ],
      "min": [
        0.041666666666666664
      ],
      "type": "SCALAR"
    },
    {
      "bufferView": 7,
      "componentType": 5126,
      "count": 100,
      "type": "SCALAR"
    }
  ],
  "bufferViews": [
    {
      "buffer": 0,
      "byteLength": 6888,
      "byteOffset": 0
    },
    {
      "buffer": 0,
      "byteLength": 6888,
      "byteOffset": 6888
    },
    {
      "buffer": 0,
      "byteLength": 4592,
      "byteOffset": 13776
    },
    {
      "buffer": 0,
      "byteLength": 5760,
      "byteOffset": 18368
    },
    {
      "buffer": 0,
      "byteLength": 6888,
      "byteOffset": 24128
    },
    {
      "buffer": 0,
      "byteLength": 6888,
      "byteOffset": 31016
    },
    {
      "buffer": 0,
      "byteLength": 400,
      "byteOffset": 37904
    },
    {
      "buffer": 0,
      "byteLength": 400,
      "byteOffset": 38304
    }
  ],
  "buffers": [
    {
      "uri": "UnrollSphere3_data.bin",
      "byteLength": 38704
    }
  ]
}